<svg width="163" height="44" viewBox="0 0 163 44" fill="none" xmlns="http://www.w3.org/2000/svg">
<g clip-path="url(#clip0_2150_32242)">
<path d="M50.1452 28.4926C50.0672 26.488 49.9814 23.9921 49.997 21.4338H49.919C49.412 23.7269 48.71 26.3165 48.164 28.1572L46.2687 34.8026H42.829L41.1442 28.204C40.6762 26.3711 40.1068 23.7815 39.709 21.4338H39.6466C39.553 23.8283 39.4438 26.4803 39.3425 28.516L39.0227 35.1536H34.9512L36.2225 16.4575H41.8852L43.3593 22.3074C43.8975 24.4991 44.4435 26.8156 44.8257 29.0152H44.9115C45.3561 26.839 45.9255 24.4055 46.4793 22.284L48.0626 16.4575H53.6317L54.6846 35.1536H50.4026L50.1452 28.4926Z" fill="#2F4022"/>
<path d="M57.8034 30.661C58.5678 31.0665 60.1277 31.6203 61.6097 31.6203C63.544 31.6203 64.6282 30.7156 64.6282 29.3974C64.6282 27.6814 62.9747 26.9405 61.1885 26.9327H59.7924V23.7581H61.0715C62.4365 23.7425 64.129 23.2824 64.129 21.8238C64.129 20.7708 63.2789 20.0532 61.7189 20.0532C60.4319 20.0532 59.0826 20.5602 58.365 20.9814L57.5772 17.7601C58.599 17.1361 60.6347 16.5433 62.8031 16.5433C66.6016 16.5433 68.6841 18.5791 68.6841 21.0438C68.6841 22.908 67.6077 24.3977 65.572 25.1543V25.2089C67.6389 25.6769 69.2535 27.2836 69.2535 29.6158C69.2535 32.6967 66.5236 35.1302 61.9919 35.1302C59.8314 35.1302 58.0218 34.6154 57.0156 34.0227L57.8034 30.661Z" fill="#2F4022"/>
<path d="M74.8301 16.7306C76.195 16.5122 78.0748 16.3484 80.0559 16.3484C83.3552 16.3484 85.5158 16.949 87.1849 18.1813C89.1193 19.6555 90.2269 22.0266 90.2269 25.4585C90.2269 29.452 88.7605 31.8856 87.1147 33.2193C85.3364 34.6467 82.6377 35.3253 79.1824 35.3253C77.248 35.3253 75.7817 35.1849 74.8301 35.0601V16.7306V16.7306ZM79.3306 31.8934C79.6113 31.9402 80.0481 31.9402 80.4147 31.9402C83.3708 31.9636 85.4846 30.0994 85.4846 25.4819C85.4846 21.5898 83.5736 19.6555 80.7189 19.6555C80.0715 19.6555 79.6347 19.7023 79.3306 19.7803V31.8934Z" fill="#2F4022"/>
<path d="M94.9083 20.022C93.5434 20.022 92.5918 19.1016 92.5918 17.8693C92.5918 16.5901 93.5668 15.6931 94.9083 15.6931C96.2733 15.6931 97.2249 16.5901 97.2249 17.8693C97.2249 19.1484 96.2265 20.022 94.9083 20.022ZM97.1781 35.1536H92.6464V21.543H97.1781V35.1536Z" fill="#2F4022"/>
<path d="M113.011 21.543C112.957 22.6038 112.879 23.8908 112.879 25.7471V33.3909C112.879 36.7994 112.029 40.8397 105.36 40.8397C103.659 40.8397 101.982 40.5511 100.773 39.9895L101.6 36.7526C102.45 37.166 103.761 37.5482 105.204 37.5482C107.185 37.5482 108.394 36.4328 108.394 34.2801V33.5391H108.339C107.622 34.5063 106.405 35.0367 105.071 35.0367C101.592 35.0367 99.6113 32.0104 99.6113 28.4381C99.6113 24.0624 102.24 21.2856 105.485 21.2856C107.029 21.2856 108.16 21.933 108.831 23.025H108.877L109.088 21.5508H113.011V21.543ZM108.347 26.8859C108.347 25.3649 107.474 24.6396 106.522 24.6396C105.11 24.6396 104.182 26.1371 104.182 28.3679C104.182 30.4972 105.056 31.8466 106.475 31.8466C107.458 31.8466 108.355 31.2382 108.355 29.5222V26.8859H108.347Z" fill="#2F4022"/>
<path d="M118.205 20.022C116.84 20.022 115.889 19.1016 115.889 17.8693C115.889 16.5901 116.864 15.6931 118.205 15.6931C119.57 15.6931 120.522 16.5901 120.522 17.8693C120.522 19.1484 119.516 20.022 118.205 20.022ZM120.475 35.1536H115.943V21.543H120.475V35.1536Z" fill="#2F4022"/>
<path d="M138.57 35.1536H133.422L129.662 27.4396L128.352 29.179V35.1458H123.844V16.4653H128.352V24.6863H128.43C128.789 23.9375 129.179 23.2121 129.561 22.4634L133.04 16.4653H138.398L132.806 24.5147L138.57 35.1536Z" fill="#2F4022"/>
<path d="M151.472 31.9401C151.472 33.1491 151.527 34.3347 151.698 35.1537H147.635L147.377 33.8511H147.299C146.426 34.9431 145.061 35.4189 143.563 35.4189C140.942 35.4189 139.211 33.5313 139.211 31.2382C139.211 27.6347 142.635 26.0903 146.909 26.0669C146.909 25.0295 146.418 24.2807 144.593 24.2807C143.228 24.2807 141.941 24.6707 141.013 25.2011L140.186 22.44C141.114 21.9564 142.994 21.2778 145.49 21.2778C150.279 21.2778 151.464 24.1326 151.464 27.1511V31.9401H151.472ZM147.065 28.7266C145.186 28.7266 143.587 29.2336 143.587 30.8092C143.587 31.9245 144.312 32.4003 145.108 32.4003C146.036 32.4003 147.065 31.7685 147.065 30.4894V28.7266V28.7266Z" fill="#2F4022"/>
<path d="M163 25.4351C162.688 25.3649 162.352 25.3337 161.884 25.3337C160.73 25.3337 159.646 25.8407 159.256 27.0497C159.131 27.3617 159.076 27.8531 159.076 28.3288V35.1459H154.545V25.9421C154.545 24.1482 154.49 22.7754 154.443 21.543H158.328L158.507 23.8128H158.608C159.334 22.0266 160.847 21.2778 162.033 21.2778C162.469 21.2778 162.703 21.3012 162.992 21.348V25.4351H163Z" fill="#2F4022"/>
<path d="M42.929 10.5298V5.94349H39.6062V4.60193H47.7804V5.94349H44.4109V10.5298H48.5292V11.8635H38.8809V10.5298H42.929Z" fill="#2F4022"/>
<path d="M61.3924 12.9242C61.2286 12.4874 61.0492 12.0663 60.862 11.6451C58.3895 12.1209 55.7064 12.425 53.1012 12.5888L52.8984 11.0523C53.3976 11.0367 53.889 11.0133 54.3726 10.9899C55.3632 8.54075 56.1665 5.94342 56.8217 3.28369L58.3427 3.58788C57.6797 6.17741 56.7983 8.75134 55.9092 10.9041C57.3599 10.7871 58.8029 10.6545 60.238 10.4205C59.7623 9.59372 59.2553 8.82154 58.7327 8.17416L59.8792 7.50338C61.0258 8.72794 62.0164 10.3269 62.8432 12.2924L61.3924 12.9242Z" fill="#2F4022"/>
<path d="M75.533 12.8775C74.6438 11.6529 73.5362 10.4439 72.4521 9.48456C71.2119 10.9041 69.7065 11.9571 67.9282 12.7917L67.0078 11.6295C70.1043 10.3035 72.2805 8.08059 73.3646 5.30387H68.131V3.97791H74.3084L75.1118 4.87488C74.6048 6.23204 74.0042 7.39421 73.2944 8.39259C74.5268 9.32856 75.7514 10.5687 76.7575 11.8323L75.533 12.8775Z" fill="#2F4022"/>
<path d="M81.6172 3.68153H83.1147V8.96199H81.6172V3.68153ZM87.9974 3.54114V7.33184C87.9974 10.3192 86.6403 12.1053 84.1677 13.1349L83.2551 11.9103C85.5717 11.0445 86.4921 9.71077 86.4921 7.18364V3.54114H87.9974Z" fill="#2F4022"/>
<path d="M101.889 7.32397H92.3887V8.81373H101.889V7.32397Z" fill="#2F4022"/>
<path d="M106.342 6.66111H115.819V7.92468H111.942C111.848 10.4518 110.756 12.1444 108.666 13.2051L107.746 12.0976C109.587 11.1382 110.366 9.94482 110.429 7.92468H106.342V6.66111ZM107.442 3.90779H113.798V5.18695H107.442V3.90779ZM114.781 2.82362C115.124 3.3228 115.468 4.11058 115.702 4.85936L114.836 5.16355C114.61 4.37577 114.305 3.64259 113.962 3.08101L114.781 2.82362ZM116.162 2.37903C116.513 2.85482 116.856 3.5724 117.129 4.37577L116.279 4.67217C116.076 3.93119 115.702 3.13561 115.382 2.65202L116.162 2.37903Z" fill="#2F4022"/>
<path d="M121.989 6.31787C122.949 6.63766 124.103 7.21484 125 7.83103L124.282 9.11019C123.37 8.48621 122.223 7.89342 121.326 7.51123L121.989 6.31787ZM121.599 11.4969C125.296 10.9509 127.855 9.38318 129.422 5.92788L130.655 6.84825C128.939 10.4986 125.99 12.2769 122.005 12.9555L121.599 11.4969ZM122.98 3.57234C123.923 3.89993 125.015 4.42252 125.912 5.0621L125.203 6.31787C124.282 5.65488 123.206 5.1323 122.309 4.75791L122.98 3.57234ZM128.666 3.08095C128.993 3.58014 129.352 4.36792 129.586 5.1167L128.72 5.42089C128.494 4.62531 128.19 3.89213 127.847 3.33835L128.666 3.08095ZM130.046 2.64417C130.397 3.11995 130.741 3.83753 131.014 4.64091L130.156 4.9373C129.968 4.18072 129.586 3.40074 129.266 2.90156L130.046 2.64417Z" fill="#2F4022"/>
<path d="M136.005 6.69229V5.42873H139.062C139.078 5.10894 139.086 4.78135 139.086 4.43815V3.04199H140.529V4.37576C140.513 4.72675 140.513 5.06994 140.505 5.42873H143.688L144.374 6.09171C144.312 8.25225 144.195 9.75761 143.992 10.9978C143.781 12.3081 143.157 12.8619 142.104 12.8619C141.605 12.8619 141.02 12.8151 140.544 12.7449L140.388 11.3176C140.989 11.4268 141.402 11.4736 141.878 11.4736C142.268 11.4736 142.479 11.3176 142.572 10.7404C142.76 9.66401 142.877 8.44725 142.908 6.70009H140.396C140.053 9.76541 138.704 11.7934 136.34 13.0803L135.451 11.9806C137.495 10.8028 138.587 9.29742 138.945 6.70009H136.005V6.69229Z" fill="#2F4022"/>
<path d="M151.939 3.86873V6.57526C151.939 9.32078 151.159 11.2083 149.326 12.7215L148.227 11.7309C149.904 10.4518 150.489 8.88399 150.489 6.49726V3.86873H151.939ZM155.129 3.54114V10.8105C156.112 10.3816 157.329 9.45338 158.296 8.22101L159.084 9.46118C158.054 10.7949 156.237 12.0273 154.443 12.7215L153.679 12.0585V3.54114H155.129Z" fill="#2F4022"/>
<path d="M0.670984 43.2264C0.670984 43.2264 8.86076 19.4995 8.94656 14.2736C8.94656 14.2736 3.7285 33.1803 2.29334 33.5781C0.865979 33.9759 -0.693979 30.6844 0.304394 25.7237C1.30277 20.7552 8.67357 11.4579 9.85914 6.70002C11.0447 1.94215 11.3411 0 11.3411 0C11.3411 0 18.8289 28.1572 4.26669 35.5982C4.27449 35.5982 4.69568 35.372 0.670984 43.2264Z" fill="#6A8A50"/>
<path d="M30.116 38.726C27.4485 36.9555 24.2272 36.6513 21.1385 36.9867C22.6984 35.3955 23.9698 33.4378 24.8044 31.1836C27.7839 23.1264 24.118 14.3361 16.6068 11.4268C22.5346 15.0849 24.4846 21.0985 21.8171 28.2743C18.8063 36.3939 10.8583 42.4465 3.22235 39.6152C3.15995 39.5918 3.09755 39.5606 3.03516 39.5372C3.80734 40.013 4.63411 40.4264 5.52329 40.754C9.17359 42.1111 13.0579 41.8303 16.443 40.286C20.8811 38.8508 25.366 37.4157 30.116 38.726Z" fill="#3B562A"/>
</g>
<defs>
<clipPath id="clip0_2150_32242">
<rect width="163" height="43.2264" fill="white"/>
</clipPath>
</defs>
</svg>
